<?xml version="1.0" encoding="UTF-8"?><svg id="Ebene_14" xmlns="http://www.w3.org/2000/svg" viewBox="0 0 768 768"><defs><style>.cls-1,.cls-2{fill:#f4b823;}.cls-2,.cls-3,.cls-4,.cls-5{stroke:#001f33;}.cls-2,.cls-3,.cls-4,.cls-5,.cls-6{stroke-linecap:round;stroke-linejoin:round;stroke-width:4px;}.cls-7{fill:#f9e14d;}.cls-8{fill:#8a50cb;}.cls-9{fill:#21b49c;}.cls-10{fill:#328ae4;}.cls-11{fill:#35c67d;}.cls-12,.cls-4{fill:#328ae6;}.cls-13{fill:#348ae2;}.cls-14{fill:#f9df4c;}.cls-3,.cls-15{fill:#f7a233;}.cls-5,.cls-6{fill:none;}.cls-6{stroke:#1d1d1b;}.cls-16{fill:#e85299;}</style></defs><polygon class="cls-10" points="442.41 469.4 490.88 467.85 493.97 621.11 442.41 469.4"/><polygon class="cls-11" points="450.15 467.85 492.89 609.63 388.36 679.61 348.87 768 339.27 693.98 250.35 669.28 218.49 716.54 204.43 771.33 135.7 774.36 143.79 727.55 291.84 617.59 290.78 645.66 425.02 467.85 450.15 467.85"/><polygon class="cls-16" points="575.44 774.36 611.4 697.77 599.58 644.01 514.54 595.13 492.89 609.63 490.88 543.8 686.16 644.94 726.45 783.56 599.58 783.15 575.44 774.36"/><path class="cls-4" d="M490.88,216.24c7.47-3.65,15.87-5.7,24.75-5.7,31.16,0,56.43,25.26,56.43,56.43s-25.26,56.43-56.43,56.43c-8.88,0-17.28-2.05-24.75-5.7"/><polygon class="cls-1" points="218.49 714.29 245.56 667.95 339.27 693.98 348.87 770.27 204.43 771.33 218.49 714.29"/><polygon class="cls-1" points="599.58 644.01 611.4 697.77 576.86 771.33 348.87 770.27 388.36 679.61 599.58 644.01"/><polygon class="cls-11" points="461.33 383.94 360.43 275.16 354.19 388.73 290.78 388.73 277.2 467.85 468.74 467.85 490.88 247.28 486.41 240.64 461.33 383.94"/><polygon class="cls-10" points="455.72 427.06 463.71 467.85 355.17 467.85 455.72 427.06"/><polygon class="cls-6" points="490.88 543.8 686.16 644.94 726.45 783.56 134.12 783.56 143.79 727.55 291.84 617.59 297.31 467.85 490.88 467.85 490.88 543.8"/><line class="cls-8" x1="611.4" y1="697.77" x2="575.44" y2="774.36"/><polyline class="cls-5" points="346.28 776.22 388.36 679.61 599.58 644.01"/><polyline class="cls-5" points="388.36 679.61 514.54 595.13 640.71 667.43"/><polygon class="cls-2" points="297.31 467.85 290.78 645.66 425.02 467.85 297.31 467.85"/><line class="cls-5" x1="464.61" y1="552.12" x2="345.21" y2="648.37"/><line class="cls-5" x1="503.42" y1="295.69" x2="529.3" y2="235.39"/><line class="cls-5" x1="490.88" y1="247.28" x2="543.9" y2="275.24"/><polygon class="cls-3" points="514.54 595.13 388.36 679.61 599.58 644.01 514.54 595.13"/><line class="cls-5" x1="339.27" y1="693.98" x2="245.56" y2="667.95"/><line class="cls-5" x1="218.49" y1="714.29" x2="204.43" y2="776.22"/><line class="cls-5" x1="578.07" y1="768" x2="611.4" y2="697.77"/><polygon class="cls-9" points="217.5 128.57 490.88 128.57 245.76 151.73 217.5 323.38 217.5 128.57"/><polygon class="cls-14" points="238.83 467.85 217.5 399.05 217.5 329.25 297.08 315.84 277.2 467.85 238.83 467.85"/><polygon class="cls-13" points="217.5 467.85 238.83 467.85 217.5 399.05 217.5 467.85"/><polygon class="cls-12" points="245.76 151.73 490.88 128.57 490.88 216.24 490.88 247.28 486.41 240.64 461.33 383.94 360.43 275.16 354.19 388.73 290.78 388.73 299.07 304.3 219.45 311.52 245.76 151.73"/><line class="cls-5" x1="455.72" y1="427.06" x2="463.71" y2="467.85"/><polygon class="cls-7" points="468.74 467.85 490.88 247.28 492.89 249.67 490.88 467.85 468.74 467.85"/><polygon class="cls-15" points="299.07 304.3 297.08 315.84 217.5 329.25 217.5 311.6 299.07 304.3"/><polyline class="cls-5" points="496.25 213.95 490.88 216.24 490.88 128.57 217.5 128.57 217.5 467.85 490.88 467.85 490.88 247.28 494.4 249.14"/><line class="cls-5" x1="277.2" y1="467.85" x2="313.57" y2="208.24"/></svg>