<?xml version="1.0" encoding="UTF-8"?><svg xmlns="http://www.w3.org/2000/svg" viewBox="0 0 768 768"><defs><style>.cls-1{fill:#d6d6d6;}.cls-2{fill:#6d7e86;}.cls-3{fill:#8a50cb;}.cls-4{fill:#fff;}.cls-5{fill:#002135;}.cls-6{stroke:#001f33;}.cls-6,.cls-7{fill:none;stroke-linecap:round;stroke-linejoin:round;stroke-width:4px;}.cls-7{stroke:#1d1d1b;}</style></defs><g id="Ebene_12"><polygon class="cls-4" points="269.33 560.92 277.63 525.06 294.4 512.84 293.35 533.42 269.33 560.92"/></g><g id="Ebene_14"><line class="cls-3" x1="611.4" y1="697.77" x2="575.44" y2="774.36"/><line class="cls-6" x1="218.49" y1="714.29" x2="204.43" y2="776.22"/><line class="cls-6" x1="578.07" y1="768" x2="611.4" y2="697.77"/></g><g id="Ebene_2"><g id="Ebene_10"><polygon class="cls-2" points="236.72 581.06 287.39 633.51 284.74 635.41 239.28 618.58 236.72 581.06"/><polyline class="cls-4" points="613.58 770.81 542.19 606.37 599.58 598.53 686.16 644.94 726.45 783.56"/><polygon class="cls-1" points="678.84 660.8 683.67 687.99 613.58 783.56 615.86 688.59 678.84 660.8"/><polygon class="cls-1" points="626.63 660.8 572.41 778.94 230.62 774.33 218.49 711.56 180.53 682.77 226.01 633.04 245.23 638.32 298.05 649.87 255.63 590.62 267.51 566.51 335.69 663.2 542.19 516.01 490.88 487.34 492.96 478.72 582.81 507.6 571.24 547.11 604.27 556.76 599.58 598.53 553.61 610.21 626.63 660.8"/><polygon class="cls-5" points="613.58 774.36 616.23 689.04 572.41 778.94 613.58 774.36"/><polygon class="cls-5" points="490.88 487.34 490.88 543.8 498.02 547.5 542.19 516.01 490.88 487.34"/><polygon class="cls-5" points="335.69 663.2 312.78 650.2 314.16 639.32 304.35 637.37 303.01 643.27 236.72 560.13 237.98 584.51 283.31 633.48 239.99 608.9 200.52 634.79 300.19 655.74 278.71 750.44 284.99 751.95 283.99 770.81 292.42 770.81 292.42 753.71 299.58 754.72 311.78 658.17 335.69 663.2"/><polygon class="cls-5" points="204.43 770.81 218.49 711.56 230.62 774.33 204.43 770.81"/><polygon class="cls-5" points="295.36 528.08 268.11 567.26 292.42 601.93 295.36 528.08"/><polygon class="cls-2" points="277.09 528.08 262.02 591.85 236.72 560.13 277.09 528.08"/><polygon class="cls-2" points="224.28 639.59 200.52 634.79 157.61 665.47 113.33 770.81 166.8 770.81 180.53 705.54 218.49 711.56 180.53 682.77 224.28 639.59"/><polyline class="cls-2" points="604.27 556.76 571.24 547.11 582.81 507.6 604.27 556.76"/><polygon class="cls-5" points="386.83 650.66 605.21 603.01 559.37 579.27 449.88 619.74 578.07 556.76 586.68 515.81 582.81 507.6 564.77 547.63 385.46 644.01 385.42 644.02 384 637.37 374.23 640.95 374.99 647.07 335.69 663.2 375.78 653.37 388.36 754.42 393.75 752.95 396.86 776.57 404.91 771.39 400.98 750.98 407.81 749.12 386.83 650.66"/><polyline class="cls-4" points="219.1 711.59 180.53 705.54 167.26 768.65 205.9 769.76 219.1 711.59"/></g><g id="Ebene_17"><polyline class="cls-7" points="498.91 547.96 490.88 543.8 490.88 485.77 544.72 516.12 335.39 661.62 267.51 566.51 295.06 529.49 292.43 601.44"/><polyline class="cls-7" points="686.16 644.94 614.67 687.45 578.07 768 726.45 783.56 686.16 644.94 599.87 600.25 605.87 557.18 584 508.98 490.88 476.85 490.88 485.77"/><polyline class="cls-7" points="295.06 529.49 295.33 510.04 235.82 560.55 239.05 610.57 156.22 664.77 219.1 711.59 205.9 769.76 111.96 772.24 156.22 664.77"/></g></g></svg>