<?xml version="1.0" encoding="UTF-8"?><svg id="Ebene_16" xmlns="http://www.w3.org/2000/svg" viewBox="0 0 768 768"><defs><style>.cls-1{fill:#b9344d;}.cls-2,.cls-3{fill:#7a1c34;}.cls-2,.cls-4,.cls-5,.cls-6{stroke:#001f33;stroke-linecap:round;stroke-linejoin:round;stroke-width:4px;}.cls-7{fill:#e15f5d;}.cls-4{fill:#1e479b;}.cls-8{fill:#d43c46;}.cls-5{fill:none;}.cls-6{fill:#368dd2;}</style></defs><polygon class="cls-6" points="409.58 33.08 416.64 15.76 450.36 23.05 447.64 46.52 409.58 33.08"/><polygon class="cls-1" points="437.04 33.85 478.54 99.89 518.69 100.05 437.04 33.85"/><polygon class="cls-3" points="468.03 159.63 341.22 128.57 474.22 128.41 478.54 99.89 518.69 100.05 512.44 172.93 468.03 159.63"/><polygon class="cls-7" points="423.27 31.32 351.66 61.72 287.12 47.14 288.01 41.11 423.27 31.32"/><polygon class="cls-8" points="362.57 57.68 288.01 41.11 263.81 117.09 342.08 114.18 335.17 128.41 474.22 128.41 478.54 99.89 431.07 29 362.57 57.68"/><polygon class="cls-5" points="260.93 128.73 288.01 41.11 431.07 29 362.57 57.68 335.17 128.41 260.93 128.73"/><polygon class="cls-5" points="468.03 159.63 335.17 128.41 362.57 57.68 431.07 29 478.54 100.69 468.03 159.63"/><polygon class="cls-5" points="513.27 170.78 468.03 159.63 478.54 100.69 431.07 29 518.69 100.05 513.27 170.78"/><polygon class="cls-6" points="605.99 227.18 447.64 154.54 612.68 201.37 605.99 227.18"/><polygon class="cls-6" points="267.98 105.24 260.93 128.73 335.17 128.41 344 105.77 267.98 105.24"/><path class="cls-4" d="M515.63,210.53c20.01,0,37.57,10.42,47.59,26.13l42.77-9.48-115.11-52.8.06,41.83c7.46-3.64,15.83-5.68,24.69-5.68Z"/><path class="cls-2" d="M280.68,105.47s4.46-35.37,32.18-35.05,28.36,35.37,28.36,35.37l-60.54-.32Z"/></svg>