<?xml version="1.0" encoding="UTF-8"?><svg id="Ebene_12" xmlns="http://www.w3.org/2000/svg" viewBox="0 0 768 768"><defs><style>.cls-1{fill:#8a51b8;}.cls-2{fill:#e37647;}.cls-2,.cls-3,.cls-4,.cls-5,.cls-6,.cls-7{stroke:#001f33;stroke-linecap:round;stroke-linejoin:round;stroke-width:4px;}.cls-3{fill:#5f267d;}.cls-4{fill:none;}.cls-5{fill:#001f33;}.cls-6{fill:#edcf54;}.cls-7{fill:#fff;}</style></defs><polygon class="cls-3" points="207.32 197.37 306.74 172.72 308.79 200.66 270.74 210.01 210.19 224.9 207.32 197.37"/><polygon class="cls-6" points="223.67 288.63 270.74 210.01 334.88 292.7 223.67 288.63"/><polygon class="cls-2" points="220.69 309.79 223.67 288.63 334.88 292.7 334.59 300.57 220.69 309.79"/><path class="cls-1" d="M245.22,254.56s7.43-11.89,29.55-11.36,28.04,8.16,28.04,8.16l8.22,12.36s-19.67-13.99-37.12-10.27-38.11,14.93-38.11,14.93l9.42-13.82Z"/><path class="cls-7" d="M275.75,253.37c28.74-.82,45.59,21.87,45.59,21.87l13.55,17.46-111.21-4.07s14.1-34.18,52.08-35.26Z"/><path class="cls-5" d="M295.34,270.38c0,9.25-6.09,17.07-14.48,19.68-1.94.6-11.07.47-13.31-.36-7.84-2.91-13.43-10.47-13.43-19.32,0-5.69,2.31-10.84,6.04-14.57,0,0,27.41-1.55,27.6-1.4,4.63,3.78,7.58,9.53,7.58,15.97Z"/><polygon class="cls-4" points="223.67 288.63 270.74 210.01 334.88 292.7 223.67 288.63"/></svg>