<?xml version="1.0" encoding="UTF-8"?><svg id="Ebene_12" xmlns="http://www.w3.org/2000/svg" viewBox="0 0 768 768"><defs><style>.cls-1{fill:#e83952;}.cls-1,.cls-2,.cls-3,.cls-4,.cls-5{stroke:#001f33;stroke-linecap:round;stroke-linejoin:round;stroke-width:4px;}.cls-2{fill:#183473;}.cls-3{fill:none;}.cls-4{fill:#4c78f3;}.cls-5{fill:#6ed6e9;}</style></defs><path class="cls-5" d="M209.71,257.69c-2.18-11.13,4.96-38.14,38.89-39.96,39.96-2.15,47.48,19.85,48.82,31.65,1.67,14.72-6.97,35.67-41.57,39.43s-44.72-23.89-46.13-31.11Z"/><path class="cls-3" d="M297.61,252.62s2.5,54.82-49.49,63.85"/><path class="cls-2" d="M240.37,249.13s-2.75,4.22,0,5.32,7.15,0,7.52,3.12-9.72,7.15-5.32,11.92,11.37-3.49,14.49,0,4.04,7.34,7.89,6.05,8.62-6.17,8.07-13.08-7.89-3.06-7.89-7.46,5.69-8.99,5.69-8.99l-2.94-4.04-24.77-1.65-2.75,8.81Z"/><path class="cls-4" d="M209.35,252.62c.19-12.41,9.56-33.31,39.25-34.9,33.68-1.81,44.53,13.44,47.59,25.33,0,0-7.27.67-41.87,4.43s-44.96,5.15-44.96,5.15Z"/><polygon class="cls-1" points="300.58 194.22 206.49 194.22 300.58 154.81 300.58 194.22"/></svg>